<mxfile host="app.diagrams.net" modified="2023-03-31T17:45:02.387Z" agent="Mozilla/5.0 (Windows NT 10.0; Win64; x64) AppleWebKit/537.36 (KHTML, like Gecko) Chrome/111.0.0.0 Safari/537.36" etag="ckdMq6VeckoWeGep9El4" version="21.1.2" type="device">
  <diagram name="PÃ¡gina-1" id="UhbWFunkwPr418FKGQ-n">
    <mxGraphModel dx="1257" dy="691" grid="1" gridSize="10" guides="1" tooltips="1" connect="1" arrows="1" fold="1" page="1" pageScale="1" pageWidth="1169" pageHeight="827" math="0" shadow="0">
      <root>
        <mxCell id="0" />
        <mxCell id="1" parent="0" />
        <mxCell id="cLFd16SqQSMeFlXF_yQz-84" style="edgeStyle=orthogonalEdgeStyle;rounded=0;orthogonalLoop=1;jettySize=auto;html=1;entryX=0;entryY=0.5;entryDx=0;entryDy=0;curved=1;" parent="1" source="cLFd16SqQSMeFlXF_yQz-7" target="cLFd16SqQSMeFlXF_yQz-73" edge="1">
          <mxGeometry relative="1" as="geometry" />
        </mxCell>
        <mxCell id="cLFd16SqQSMeFlXF_yQz-122" style="edgeStyle=orthogonalEdgeStyle;rounded=0;orthogonalLoop=1;jettySize=auto;html=1;curved=1;" parent="1" source="cLFd16SqQSMeFlXF_yQz-7" target="cLFd16SqQSMeFlXF_yQz-108" edge="1">
          <mxGeometry relative="1" as="geometry" />
        </mxCell>
        <mxCell id="cLFd16SqQSMeFlXF_yQz-123" style="edgeStyle=orthogonalEdgeStyle;rounded=0;orthogonalLoop=1;jettySize=auto;html=1;curved=1;" parent="1" source="cLFd16SqQSMeFlXF_yQz-7" target="cLFd16SqQSMeFlXF_yQz-106" edge="1">
          <mxGeometry relative="1" as="geometry" />
        </mxCell>
        <mxCell id="cLFd16SqQSMeFlXF_yQz-7" value="Editoras" style="whiteSpace=wrap;html=1;align=center;" parent="1" vertex="1">
          <mxGeometry x="623" y="980" width="100" height="40" as="geometry" />
        </mxCell>
        <mxCell id="cLFd16SqQSMeFlXF_yQz-78" style="edgeStyle=orthogonalEdgeStyle;rounded=0;orthogonalLoop=1;jettySize=auto;html=1;entryX=0;entryY=0.5;entryDx=0;entryDy=0;curved=1;" parent="1" source="cLFd16SqQSMeFlXF_yQz-62" target="cLFd16SqQSMeFlXF_yQz-66" edge="1">
          <mxGeometry relative="1" as="geometry" />
        </mxCell>
        <mxCell id="cLFd16SqQSMeFlXF_yQz-124" style="edgeStyle=orthogonalEdgeStyle;rounded=0;orthogonalLoop=1;jettySize=auto;html=1;curved=1;" parent="1" source="cLFd16SqQSMeFlXF_yQz-62" target="cLFd16SqQSMeFlXF_yQz-114" edge="1">
          <mxGeometry relative="1" as="geometry" />
        </mxCell>
        <mxCell id="cLFd16SqQSMeFlXF_yQz-125" style="edgeStyle=orthogonalEdgeStyle;rounded=0;orthogonalLoop=1;jettySize=auto;html=1;curved=1;" parent="1" source="cLFd16SqQSMeFlXF_yQz-62" target="cLFd16SqQSMeFlXF_yQz-115" edge="1">
          <mxGeometry relative="1" as="geometry" />
        </mxCell>
        <mxCell id="cLFd16SqQSMeFlXF_yQz-62" value="Livros" style="whiteSpace=wrap;html=1;align=center;" parent="1" vertex="1">
          <mxGeometry x="1093" y="980" width="100" height="40" as="geometry" />
        </mxCell>
        <mxCell id="cLFd16SqQSMeFlXF_yQz-76" style="edgeStyle=orthogonalEdgeStyle;rounded=0;orthogonalLoop=1;jettySize=auto;html=1;curved=1;" parent="1" source="cLFd16SqQSMeFlXF_yQz-63" target="cLFd16SqQSMeFlXF_yQz-65" edge="1">
          <mxGeometry relative="1" as="geometry" />
        </mxCell>
        <mxCell id="cLFd16SqQSMeFlXF_yQz-131" style="edgeStyle=orthogonalEdgeStyle;rounded=0;orthogonalLoop=1;jettySize=auto;html=1;curved=1;" parent="1" source="cLFd16SqQSMeFlXF_yQz-63" target="cLFd16SqQSMeFlXF_yQz-92" edge="1">
          <mxGeometry relative="1" as="geometry" />
        </mxCell>
        <mxCell id="cLFd16SqQSMeFlXF_yQz-132" style="edgeStyle=orthogonalEdgeStyle;rounded=0;orthogonalLoop=1;jettySize=auto;html=1;entryX=0.5;entryY=1;entryDx=0;entryDy=0;curved=1;" parent="1" source="cLFd16SqQSMeFlXF_yQz-63" target="cLFd16SqQSMeFlXF_yQz-90" edge="1">
          <mxGeometry relative="1" as="geometry" />
        </mxCell>
        <mxCell id="cLFd16SqQSMeFlXF_yQz-63" value="Atendentes" style="whiteSpace=wrap;html=1;align=center;" parent="1" vertex="1">
          <mxGeometry x="1093" y="690" width="100" height="40" as="geometry" />
        </mxCell>
        <mxCell id="cLFd16SqQSMeFlXF_yQz-77" style="edgeStyle=orthogonalEdgeStyle;rounded=0;orthogonalLoop=1;jettySize=auto;html=1;curved=1;" parent="1" source="cLFd16SqQSMeFlXF_yQz-65" target="cLFd16SqQSMeFlXF_yQz-62" edge="1">
          <mxGeometry relative="1" as="geometry" />
        </mxCell>
        <mxCell id="cLFd16SqQSMeFlXF_yQz-65" value="Organizam" style="shape=rhombus;perimeter=rhombusPerimeter;whiteSpace=wrap;html=1;align=center;" parent="1" vertex="1">
          <mxGeometry x="1083" y="820" width="120" height="60" as="geometry" />
        </mxCell>
        <mxCell id="cLFd16SqQSMeFlXF_yQz-79" style="edgeStyle=orthogonalEdgeStyle;rounded=0;orthogonalLoop=1;jettySize=auto;html=1;entryX=0;entryY=0.5;entryDx=0;entryDy=0;curved=1;" parent="1" source="cLFd16SqQSMeFlXF_yQz-66" target="cLFd16SqQSMeFlXF_yQz-67" edge="1">
          <mxGeometry relative="1" as="geometry" />
        </mxCell>
        <mxCell id="cLFd16SqQSMeFlXF_yQz-66" value="Alocados" style="shape=rhombus;perimeter=rhombusPerimeter;whiteSpace=wrap;html=1;align=center;" parent="1" vertex="1">
          <mxGeometry x="1323" y="970" width="120" height="60" as="geometry" />
        </mxCell>
        <mxCell id="cLFd16SqQSMeFlXF_yQz-80" style="edgeStyle=orthogonalEdgeStyle;rounded=0;orthogonalLoop=1;jettySize=auto;html=1;entryX=0.5;entryY=1;entryDx=0;entryDy=0;curved=1;" parent="1" source="cLFd16SqQSMeFlXF_yQz-67" target="cLFd16SqQSMeFlXF_yQz-68" edge="1">
          <mxGeometry relative="1" as="geometry" />
        </mxCell>
        <mxCell id="cLFd16SqQSMeFlXF_yQz-126" style="edgeStyle=orthogonalEdgeStyle;rounded=0;orthogonalLoop=1;jettySize=auto;html=1;exitX=0.5;exitY=1;exitDx=0;exitDy=0;entryX=0.5;entryY=0;entryDx=0;entryDy=0;curved=1;" parent="1" source="cLFd16SqQSMeFlXF_yQz-67" target="cLFd16SqQSMeFlXF_yQz-94" edge="1">
          <mxGeometry relative="1" as="geometry" />
        </mxCell>
        <mxCell id="cLFd16SqQSMeFlXF_yQz-127" style="edgeStyle=orthogonalEdgeStyle;rounded=0;orthogonalLoop=1;jettySize=auto;html=1;entryX=0.5;entryY=0;entryDx=0;entryDy=0;curved=1;" parent="1" source="cLFd16SqQSMeFlXF_yQz-67" target="cLFd16SqQSMeFlXF_yQz-95" edge="1">
          <mxGeometry relative="1" as="geometry" />
        </mxCell>
        <mxCell id="cLFd16SqQSMeFlXF_yQz-67" value="Estante" style="whiteSpace=wrap;html=1;align=center;" parent="1" vertex="1">
          <mxGeometry x="1573" y="980" width="100" height="40" as="geometry" />
        </mxCell>
        <mxCell id="cLFd16SqQSMeFlXF_yQz-81" style="edgeStyle=orthogonalEdgeStyle;rounded=0;orthogonalLoop=1;jettySize=auto;html=1;entryX=0.5;entryY=1;entryDx=0;entryDy=0;curved=1;" parent="1" source="cLFd16SqQSMeFlXF_yQz-68" target="cLFd16SqQSMeFlXF_yQz-69" edge="1">
          <mxGeometry relative="1" as="geometry" />
        </mxCell>
        <mxCell id="cLFd16SqQSMeFlXF_yQz-68" value="Possuem" style="shape=rhombus;perimeter=rhombusPerimeter;whiteSpace=wrap;html=1;align=center;" parent="1" vertex="1">
          <mxGeometry x="1563" y="820" width="120" height="60" as="geometry" />
        </mxCell>
        <mxCell id="cLFd16SqQSMeFlXF_yQz-128" style="edgeStyle=orthogonalEdgeStyle;rounded=0;orthogonalLoop=1;jettySize=auto;html=1;curved=1;" parent="1" source="cLFd16SqQSMeFlXF_yQz-69" target="cLFd16SqQSMeFlXF_yQz-101" edge="1">
          <mxGeometry relative="1" as="geometry" />
        </mxCell>
        <mxCell id="cLFd16SqQSMeFlXF_yQz-129" style="edgeStyle=orthogonalEdgeStyle;rounded=0;orthogonalLoop=1;jettySize=auto;html=1;entryX=0.5;entryY=1;entryDx=0;entryDy=0;curved=1;" parent="1" source="cLFd16SqQSMeFlXF_yQz-69" target="cLFd16SqQSMeFlXF_yQz-119" edge="1">
          <mxGeometry relative="1" as="geometry" />
        </mxCell>
        <mxCell id="cLFd16SqQSMeFlXF_yQz-69" value="Categorias" style="whiteSpace=wrap;html=1;align=center;" parent="1" vertex="1">
          <mxGeometry x="1573" y="690" width="100" height="40" as="geometry" />
        </mxCell>
        <mxCell id="cLFd16SqQSMeFlXF_yQz-88" style="edgeStyle=orthogonalEdgeStyle;rounded=0;orthogonalLoop=1;jettySize=auto;html=1;entryX=0.5;entryY=0;entryDx=0;entryDy=0;curved=1;" parent="1" source="cLFd16SqQSMeFlXF_yQz-70" target="cLFd16SqQSMeFlXF_yQz-71" edge="1">
          <mxGeometry relative="1" as="geometry" />
        </mxCell>
        <mxCell id="cLFd16SqQSMeFlXF_yQz-133" style="edgeStyle=orthogonalEdgeStyle;rounded=0;orthogonalLoop=1;jettySize=auto;html=1;curved=1;" parent="1" source="cLFd16SqQSMeFlXF_yQz-70" target="cLFd16SqQSMeFlXF_yQz-102" edge="1">
          <mxGeometry relative="1" as="geometry" />
        </mxCell>
        <mxCell id="cLFd16SqQSMeFlXF_yQz-134" style="edgeStyle=orthogonalEdgeStyle;rounded=0;orthogonalLoop=1;jettySize=auto;html=1;curved=1;" parent="1" source="cLFd16SqQSMeFlXF_yQz-70" target="cLFd16SqQSMeFlXF_yQz-103" edge="1">
          <mxGeometry relative="1" as="geometry" />
        </mxCell>
        <mxCell id="cLFd16SqQSMeFlXF_yQz-70" value="Autores" style="whiteSpace=wrap;html=1;align=center;" parent="1" vertex="1">
          <mxGeometry x="623" y="690" width="100" height="40" as="geometry" />
        </mxCell>
        <mxCell id="cLFd16SqQSMeFlXF_yQz-89" style="edgeStyle=orthogonalEdgeStyle;rounded=0;orthogonalLoop=1;jettySize=auto;html=1;entryX=0.5;entryY=0;entryDx=0;entryDy=0;curved=1;" parent="1" source="cLFd16SqQSMeFlXF_yQz-71" target="cLFd16SqQSMeFlXF_yQz-7" edge="1">
          <mxGeometry relative="1" as="geometry" />
        </mxCell>
        <mxCell id="cLFd16SqQSMeFlXF_yQz-71" value="Vendem" style="shape=rhombus;perimeter=rhombusPerimeter;whiteSpace=wrap;html=1;align=center;" parent="1" vertex="1">
          <mxGeometry x="613" y="820" width="120" height="60" as="geometry" />
        </mxCell>
        <mxCell id="cLFd16SqQSMeFlXF_yQz-85" style="edgeStyle=orthogonalEdgeStyle;rounded=0;orthogonalLoop=1;jettySize=auto;html=1;exitX=1;exitY=0.5;exitDx=0;exitDy=0;entryX=0;entryY=0.5;entryDx=0;entryDy=0;curved=1;" parent="1" source="cLFd16SqQSMeFlXF_yQz-73" target="cLFd16SqQSMeFlXF_yQz-62" edge="1">
          <mxGeometry relative="1" as="geometry" />
        </mxCell>
        <mxCell id="cLFd16SqQSMeFlXF_yQz-73" value="Publicam" style="shape=rhombus;perimeter=rhombusPerimeter;whiteSpace=wrap;html=1;align=center;" parent="1" vertex="1">
          <mxGeometry x="853" y="970" width="120" height="60" as="geometry" />
        </mxCell>
        <mxCell id="cLFd16SqQSMeFlXF_yQz-90" value="CPF" style="ellipse;whiteSpace=wrap;html=1;align=center;fontStyle=4;" parent="1" vertex="1">
          <mxGeometry x="1173" y="580" width="100" height="40" as="geometry" />
        </mxCell>
        <mxCell id="cLFd16SqQSMeFlXF_yQz-92" value="Nome" style="ellipse;whiteSpace=wrap;html=1;align=center;" parent="1" vertex="1">
          <mxGeometry x="1013" y="580" width="100" height="40" as="geometry" />
        </mxCell>
        <mxCell id="cLFd16SqQSMeFlXF_yQz-94" value="Corredor" style="ellipse;whiteSpace=wrap;html=1;align=center;fontStyle=4;" parent="1" vertex="1">
          <mxGeometry x="1503" y="1100" width="100" height="40" as="geometry" />
        </mxCell>
        <mxCell id="cLFd16SqQSMeFlXF_yQz-95" value="Tema" style="ellipse;whiteSpace=wrap;html=1;align=center;" parent="1" vertex="1">
          <mxGeometry x="1643" y="1100" width="100" height="40" as="geometry" />
        </mxCell>
        <mxCell id="cLFd16SqQSMeFlXF_yQz-97" style="edgeStyle=orthogonalEdgeStyle;rounded=0;orthogonalLoop=1;jettySize=auto;html=1;exitX=0.5;exitY=1;exitDx=0;exitDy=0;curved=1;" parent="1" source="cLFd16SqQSMeFlXF_yQz-94" target="cLFd16SqQSMeFlXF_yQz-94" edge="1">
          <mxGeometry relative="1" as="geometry" />
        </mxCell>
        <mxCell id="cLFd16SqQSMeFlXF_yQz-101" value="Subtemas" style="ellipse;whiteSpace=wrap;html=1;align=center;" parent="1" vertex="1">
          <mxGeometry x="1653" y="580" width="100" height="40" as="geometry" />
        </mxCell>
        <mxCell id="cLFd16SqQSMeFlXF_yQz-102" value="CPF" style="ellipse;whiteSpace=wrap;html=1;align=center;fontStyle=4;" parent="1" vertex="1">
          <mxGeometry x="543" y="580" width="100" height="40" as="geometry" />
        </mxCell>
        <mxCell id="cLFd16SqQSMeFlXF_yQz-103" value="Nome" style="ellipse;whiteSpace=wrap;html=1;align=center;" parent="1" vertex="1">
          <mxGeometry x="703" y="580" width="100" height="40" as="geometry" />
        </mxCell>
        <mxCell id="cLFd16SqQSMeFlXF_yQz-106" value="CNPJ" style="ellipse;whiteSpace=wrap;html=1;align=center;fontStyle=4;" parent="1" vertex="1">
          <mxGeometry x="703" y="1100" width="100" height="40" as="geometry" />
        </mxCell>
        <mxCell id="cLFd16SqQSMeFlXF_yQz-108" value="Local" style="ellipse;whiteSpace=wrap;html=1;align=center;" parent="1" vertex="1">
          <mxGeometry x="543" y="1100" width="100" height="40" as="geometry" />
        </mxCell>
        <mxCell id="cLFd16SqQSMeFlXF_yQz-110" style="edgeStyle=orthogonalEdgeStyle;rounded=0;orthogonalLoop=1;jettySize=auto;html=1;exitX=0.5;exitY=1;exitDx=0;exitDy=0;curved=1;" parent="1" source="cLFd16SqQSMeFlXF_yQz-108" target="cLFd16SqQSMeFlXF_yQz-108" edge="1">
          <mxGeometry relative="1" as="geometry" />
        </mxCell>
        <mxCell id="cLFd16SqQSMeFlXF_yQz-111" style="edgeStyle=orthogonalEdgeStyle;rounded=0;orthogonalLoop=1;jettySize=auto;html=1;exitX=0.5;exitY=1;exitDx=0;exitDy=0;curved=1;" parent="1" source="cLFd16SqQSMeFlXF_yQz-108" target="cLFd16SqQSMeFlXF_yQz-108" edge="1">
          <mxGeometry relative="1" as="geometry" />
        </mxCell>
        <mxCell id="cLFd16SqQSMeFlXF_yQz-114" value="CÃ³digo" style="ellipse;whiteSpace=wrap;html=1;align=center;fontStyle=4;" parent="1" vertex="1">
          <mxGeometry x="1013" y="1100" width="100" height="40" as="geometry" />
        </mxCell>
        <mxCell id="cLFd16SqQSMeFlXF_yQz-115" value="GÃªnero" style="ellipse;whiteSpace=wrap;html=1;align=center;" parent="1" vertex="1">
          <mxGeometry x="1183" y="1100" width="100" height="40" as="geometry" />
        </mxCell>
        <mxCell id="cLFd16SqQSMeFlXF_yQz-119" value="CÃ³digo" style="ellipse;whiteSpace=wrap;html=1;align=center;fontStyle=4;" parent="1" vertex="1">
          <mxGeometry x="1483" y="580" width="100" height="40" as="geometry" />
        </mxCell>
        <mxCell id="Xp6DT-yU1J9bSyro8l5E-1" value="&lt;font color=&quot;#ff0000&quot;&gt;N&lt;/font&gt;" style="text;html=1;strokeColor=none;fillColor=none;align=center;verticalAlign=middle;whiteSpace=wrap;rounded=0;" vertex="1" parent="1">
          <mxGeometry x="673" y="950" width="60" height="30" as="geometry" />
        </mxCell>
        <mxCell id="Xp6DT-yU1J9bSyro8l5E-2" value="&lt;font color=&quot;#ff0000&quot;&gt;N&lt;/font&gt;" style="text;html=1;strokeColor=none;fillColor=none;align=center;verticalAlign=middle;whiteSpace=wrap;rounded=0;" vertex="1" parent="1">
          <mxGeometry x="673" y="730" width="60" height="30" as="geometry" />
        </mxCell>
        <mxCell id="Xp6DT-yU1J9bSyro8l5E-3" value="&lt;font color=&quot;#ff0000&quot;&gt;N&lt;/font&gt;" style="text;html=1;strokeColor=none;fillColor=none;align=center;verticalAlign=middle;whiteSpace=wrap;rounded=0;" vertex="1" parent="1">
          <mxGeometry x="1143" y="950" width="60" height="30" as="geometry" />
        </mxCell>
        <mxCell id="Xp6DT-yU1J9bSyro8l5E-4" value="&lt;font color=&quot;#ff0000&quot;&gt;N&lt;/font&gt;" style="text;html=1;strokeColor=none;fillColor=none;align=center;verticalAlign=middle;whiteSpace=wrap;rounded=0;" vertex="1" parent="1">
          <mxGeometry x="1143" y="730" width="60" height="30" as="geometry" />
        </mxCell>
        <mxCell id="Xp6DT-yU1J9bSyro8l5E-5" value="&lt;font color=&quot;#ff0000&quot;&gt;N&lt;/font&gt;" style="text;html=1;strokeColor=none;fillColor=none;align=center;verticalAlign=middle;whiteSpace=wrap;rounded=0;" vertex="1" parent="1">
          <mxGeometry x="1623" y="730" width="60" height="30" as="geometry" />
        </mxCell>
        <mxCell id="Xp6DT-yU1J9bSyro8l5E-6" value="&lt;font color=&quot;#ff0000&quot;&gt;1&lt;/font&gt;" style="text;html=1;strokeColor=none;fillColor=none;align=center;verticalAlign=middle;whiteSpace=wrap;rounded=0;" vertex="1" parent="1">
          <mxGeometry x="1623" y="950" width="60" height="30" as="geometry" />
        </mxCell>
        <mxCell id="Xp6DT-yU1J9bSyro8l5E-7" value="&lt;font color=&quot;#ff0000&quot;&gt;N&lt;/font&gt;" style="text;html=1;strokeColor=none;fillColor=none;align=center;verticalAlign=middle;whiteSpace=wrap;rounded=0;" vertex="1" parent="1">
          <mxGeometry x="1040" y="1000" width="60" height="30" as="geometry" />
        </mxCell>
        <mxCell id="Xp6DT-yU1J9bSyro8l5E-8" value="&lt;font color=&quot;#ff0000&quot;&gt;1&lt;/font&gt;" style="text;html=1;strokeColor=none;fillColor=none;align=center;verticalAlign=middle;whiteSpace=wrap;rounded=0;" vertex="1" parent="1">
          <mxGeometry x="723" y="1000" width="60" height="30" as="geometry" />
        </mxCell>
        <mxCell id="Xp6DT-yU1J9bSyro8l5E-9" value="&lt;font color=&quot;#ff0000&quot;&gt;N&lt;/font&gt;" style="text;html=1;strokeColor=none;fillColor=none;align=center;verticalAlign=middle;whiteSpace=wrap;rounded=0;" vertex="1" parent="1">
          <mxGeometry x="1193" y="1000" width="60" height="30" as="geometry" />
        </mxCell>
        <mxCell id="Xp6DT-yU1J9bSyro8l5E-10" value="&lt;font color=&quot;#ff0000&quot;&gt;1&lt;/font&gt;" style="text;html=1;strokeColor=none;fillColor=none;align=center;verticalAlign=middle;whiteSpace=wrap;rounded=0;" vertex="1" parent="1">
          <mxGeometry x="1523" y="1000" width="60" height="30" as="geometry" />
        </mxCell>
      </root>
    </mxGraphModel>
  </diagram>
</mxfile>
